<svg xmlns="http://www.w3.org/2000/svg" width="62.466" height="55.102" viewBox="0 0 62.466 55.102">
  <g id="phoenix" transform="translate(-24.1 -26)">
    <path id="Path_1" data-name="Path 1" d="M30,81c-7-1-8.37-9.51-.84-35.13C35,26,46.18,26,58,26c15.17,0,23.61,3.18,25.79,9.73a7.16,7.16,0,0,1-1,7,6,6,0,0,1-.58.65c2.89,1.93,4.67,4.64,4.31,8.52-.39,4.36-3.36,6.65-8,7.76A5.52,5.52,0,0,1,79,62a7.7,7.7,0,0,1-3.16,6.14C70.09,72.76,60,75,46,73c-3-.43-5,2-7,4C36.62,79.38,34.24,81.61,30,81Z"/>
    <path id="Path_2" data-name="Path 2" d="M58,30c8,0,20,1,22,7,2.24,6.71-11,6-21,5,9,1,24.18,2,23.5,9.5C82,57,72,57,55,56c8,1,20,2,20,6,0,6.28-16.26,9-27.33,7.31C39,68,38.06,76.77,31,75c-4-1-3-12,2-28C38.29,30.09,46.49,30,58,30Z" fill="#fff" stroke="#000" stroke-linecap="round" stroke-linejoin="round" stroke-width="2"/>
  </g>
</svg>
