<svg xmlns="http://www.w3.org/2000/svg" width="889.574" height="148" viewBox="0 0 889.574 148">
  <style>
    .lnbitsbox-wordmark { fill: currentColor; }
    .lnbitsbox-accent { fill: #ff1ee6; }
    .lnbitsbox-outline {
      fill: none;
      stroke: currentColor;
      stroke-width: 7;
    }
  </style>
  <g id="Group_2" data-name="Group 2" transform="translate(-571 -302)">
    <g id="Component_1_1" data-name="Component 1 – 1" transform="translate(1076.114 315.614)">
      <path id="Path_9" data-name="Path 9" class="lnbitsbox-accent" d="M13.114,0h44.24c18.8,0,30.178-10.9,30.178-28.44,0-12.482-9.322-24.174-20.54-25.912,9.48-1.9,18.486-10.9,18.486-24.174,0-16.59-11.376-26.86-29.072-26.86H13.114ZM22.12-58.144V-97.17H55.3c13.588,0,20.7,8.848,20.7,19.592,0,10.9-7.11,19.434-20.7,19.434Zm0,49.928V-49.928H55.932c14.694,0,22.12,10.112,22.12,20.856,0,12.8-8.216,20.856-22.12,20.856ZM132.72,1.9c22.594,0,36.814-17.854,36.814-40.132S155.314-78.21,132.72-78.21c-22.278,0-36.656,17.7-36.656,39.974S110.442,1.9,132.72,1.9Zm0-7.426c-17.7,0-27.808-15.642-27.808-32.706,0-16.906,10.112-32.548,27.808-32.548,18.012,0,27.966,15.642,27.966,32.548C160.686-21.172,150.732-5.53,132.72-5.53ZM226.1,0h9.8L205.716-39.184l28.44-37.13h-9.8L200.818-44.872l-23.7-31.442h-9.8l28.44,37.13L165.584,0h9.8l25.438-33.654Z" transform="translate(-13.114 105.386)"/>
    </g>
    <g id="Page-1" transform="translate(570.595 302)">
      <g id="Desktop-HD" transform="translate(-68 -665)">
        <g id="Group-9" transform="translate(25.405 654)">
          <g id="Group-6" transform="translate(43 11)">
            <path id="LNbits" class="lnbitsbox-wordmark" d="M168.595,119V99.05h-51.3V15.95H95.245V119Zm31.5,0V52.4l49.8,66.6h22.05V15.95h-22.05v66.6l-49.8-66.6h-22.05V119Zm121.4,1.8a33.37,33.37,0,0,0,18.225-5.175,35.457,35.457,0,0,0,12.825-14.475,46.313,46.313,0,0,0,4.65-21,45.845,45.845,0,0,0-4.65-20.925,35.564,35.564,0,0,0-12.825-14.4,33.37,33.37,0,0,0-18.225-5.175,31.808,31.808,0,0,0-16.425,4.275A32.524,32.524,0,0,0,293.295,56h0V14.15h-11.25V119h11.25V104.45a32.524,32.524,0,0,0,11.775,12.075A31.808,31.808,0,0,0,321.495,120.8Zm-2.1-10.05a24.232,24.232,0,0,1-13.5-3.9,25.771,25.771,0,0,1-9.3-10.875,36.567,36.567,0,0,1-3.3-15.825,36.073,36.073,0,0,1,3.3-15.75,25.861,25.861,0,0,1,9.3-10.8,24.232,24.232,0,0,1,13.5-3.9,23.871,23.871,0,0,1,13.425,3.9,26.056,26.056,0,0,1,9.225,10.8,36.073,36.073,0,0,1,3.3,15.75,36.567,36.567,0,0,1-3.3,15.825,25.965,25.965,0,0,1-9.225,10.875A23.871,23.871,0,0,1,319.395,110.75Zm49.45-83.4a6.953,6.953,0,0,0,5.175-2.25,7.317,7.317,0,0,0,2.175-5.25,7.068,7.068,0,0,0-2.175-5.175,7.068,7.068,0,0,0-5.175-2.175,7.242,7.242,0,0,0-5.325,2.175,7.068,7.068,0,0,0-2.175,5.175,7.317,7.317,0,0,0,2.175,5.25A7.121,7.121,0,0,0,368.845,27.35Zm5.55,91.65V41.45h-11.25V119Zm41.1,1.8a22.672,22.672,0,0,0,14.4-4.95h0l-5.55-8.25a10.859,10.859,0,0,1-3.45,2.25,11.686,11.686,0,0,1-4.65.9,7.676,7.676,0,0,1-5.925-2.775A10.09,10.09,0,0,1,407.845,101h0V51.5h19.05V41.45h-19.05V20.15h-11.25v21.3h-12.15V51.5h12.15V101q0,8.7,5.325,14.25A18,18,0,0,0,415.495,120.8Zm51.2,0q12.3,0,20.325-6.45a20.692,20.692,0,0,0,8.025-16.95q0-6.9-3.45-11.175a23.905,23.905,0,0,0-8.55-6.675,105.135,105.135,0,0,0-13.35-4.95q-8.4-2.7-12.3-4.35a16.881,16.881,0,0,1-5.85-3.75,7.621,7.621,0,0,1-1.95-5.4,9.54,9.54,0,0,1,4.5-8.4,20.14,20.14,0,0,1,11.4-3q10.8,0,22.35,7.35h0l5.4-8.7a57.567,57.567,0,0,0-13.5-6.375,46.177,46.177,0,0,0-14.25-2.325q-11.85,0-19.5,6.225t-7.65,16.575q0,8.25,5.85,13.125t20.1,8.925q6.75,1.95,10.575,3.45a17.8,17.8,0,0,1,6.375,4.125,9,9,0,0,1,2.55,6.525,10.278,10.278,0,0,1-4.725,8.85q-4.725,3.3-12.375,3.3-12.9,0-26.25-9.75h0l-5.85,8.25a52.058,52.058,0,0,0,15.375,8.55A49.9,49.9,0,0,0,466.695,120.8Z"/>
            <path id="Path" class="lnbitsbox-accent" d="M31.763,0,7.108,78.859H26.979L0,148,74.84,57.352H43.935L84.3,0Z"/>
          </g>
        </g>
      </g>
    </g>
    <g id="Group_1" data-name="Group 1" transform="translate(-47.68 169.961)">
      <path id="Path_6" data-name="Path 6" class="lnbitsbox-outline" d="M1621,369.547v43.406" transform="translate(-186.787 -168.663)"/>
      <path id="Path_3" data-name="Path 3" class="lnbitsbox-outline" d="M1363.68,243.008V166.638l69.435-29.446,71.639,29.446v76.371l-71.639,29.879Z" stroke-linecap="round" stroke-linejoin="round"/>
      <path id="Path_4" data-name="Path 4" class="lnbitsbox-outline" d="M1487.969,311.491V266.14l36.382-16.152,36.113,16.152v45.351l-36.113,15.032Z" transform="translate(-90.219 -81.877)" stroke-linejoin="round"/>
      <path id="Path_5" data-name="Path 5" class="lnbitsbox-outline" d="M1487.936,307.949l37.177,16.462,35.769-16.462" transform="translate(-90.195 -123.95)"/>
      <path id="Path_7" data-name="Path 7" class="lnbitsbox-outline" d="M1369.582,491.134l32.452-12.157" transform="translate(-4.284 -249.143)"/>
      <path id="Path_8" data-name="Path 8" class="lnbitsbox-outline" d="M1756.984,478.977l33.66,13.047" transform="translate(-286.643 -249.143)"/>
    </g>
  </g>
</svg>
